<svg xmlns="http://www.w3.org/2000/svg" viewBox="0 0 32 32" fill="none">
  <rect width="32" height="32" rx="6" fill="#368BD3"/>
  <path d="M8 8 C10.5 10 12 12.5 12 16 C12 19.5 10.5 22 8 24 C5.5 22 4 19.5 4 16 C4 12.5 5.5 10 8 8 Z" fill="white"/>
  <path d="M24 8 C26.5 10 28 12.5 28 16 C28 19.5 26.5 22 24 24 C21.5 22 20 19.5 20 16 C20 12.5 21.5 10 24 8 Z" fill="white"/>
  <path d="M16 6 C18.5 8 20 10.5 20 14 C20 17.5 18.5 20 16 22 C13.5 20 12 17.5 12 14 C12 10.5 13.5 8 16 6 Z" fill="#1B5D97"/>
</svg>